<?xml version="1.0" encoding="utf-8"?>
<!-- Generator: Adobe Illustrator 24.3.0, SVG Export Plug-In . SVG Version: 6.00 Build 0)  -->
<svg version="1.1" id="Layer_1" xmlns="http://www.w3.org/2000/svg" xmlns:xlink="http://www.w3.org/1999/xlink" x="0px" y="0px"
	 viewBox="0 0 200 200" style="enable-background:new 0 0 200 200;" xml:space="preserve">
<style type="text/css">
	.st0{fill:#1B1B1F;}
	.st1{fill:#00A5EA;}
	.st2{fill-rule:evenodd;clip-rule:evenodd;}
	.st3{fill:#FFED00;}
	.st4{fill:#00A6EB;}
	.st5{fill-rule:evenodd;clip-rule:evenodd;fill:#FFEC00;}
</style>
<g>
	<g>
		<g>
			<path d="M132.1,46.23c-1.65-3.91-6.56-5.14-13.32-3.48c-7.88,1.6-19.13,7.01-29.51,22.96c-2.47,3.79-4.55,7.53-6.3,11.16
				c-0.04-0.01-0.07,0.01-0.11,0.01c-8.95-1.38-9.62-5.49-7.34-9.35c2.27-3.23,11.81-3.46,11.46-1.84
				c-0.26,1.25-2.35,1.76-2.35,1.76s1.46,0.01,2.57-1.19c1.96-2.11,0.15-5.35-5.89-4.56c-4.93,0.65-9.08,2.71-9.64,7.07
				c-0.66,5.15,3.99,7.6,11.06,8.58c-4.06,8.49-6.26,16.26-7.16,22.44c-2.3-15.34-12.42-37.31-1.72-49.77
				c0.32-0.37,0.66-0.74,1-1.11c1.28,0.1,2.53,0.08,3.73-0.12c6.02-1.01,5.46-5.67,1.76-4.93c-2.63,0.53-5.16,1.97-7.51,3.79
				c-2.46-0.43-5.33-1.23-9.01-2.29c-6.26-1.8-21.11-4.59-33.47,1.33C18,52.61,11.99,60.72,11.35,72.35
				c-0.61,11.15,10.77,14.76,22.7,6.95c10.66-6.98,11.84-20.64,7.17-23.51c-3.06-1.89-5.88,0.64-6.05,1.28
				c2.49-1.16,3.72-0.28,4.84,1.2c1.37,1.8,3.22,12.57-6.1,19.95c-10.81,8.56-23.5,4.49-21.67-5.92c1.33-7.55,8.8-20.42,19.74-24.46
				c9.09-3.35,17.12-5.15,31.02-1.67c2.84,0.71,5.86,1.69,8.82,2.27c-2.07,1.75-3.94,3.76-5.53,5.69c-2.03,2.1-4.04,4.48-5.97,7.23
				c-12,17.1-18.07,36.68-24.8,48.09c-0.68,1.16-1.42,2.15-2.18,3.04c-0.64,0.65-2.01,1.84-2.78,2.47
				c-15.54-4.7-25.52-0.85-28.7,1.88c-0.93,0.8-1.42,1.61-1.37,2.28c0.09,1.17,1.81,2.06,4.83,2.53c1.21,0.19,2.7,0.3,4.36,0.3
				c14.15,0,20.93-5.64,20.93-5.64s2.52,1.17,5.02,2.54c9.94,5.44,14.7,1.54,16.48-0.83c0.11-0.15-3.15,2.72-8.04,1.44
				c-5.53-1.46-8.75-2.73-12.3-4.15c3.61-2.67,7.66-8.19,12.19-17.43c10.93-22.33,17.03-33.37,25.6-43.8
				c-9.4,14.64-0.11,43.44,5.39,56.6c1.72,4.12,2.88,5.84,3.66,6.73c1.53,1.83,3.28,2.77,4.62,3.12s2.86,0.35,3.66,0.35
				c3.05-0.19,9.98-1.14,21.04-7.86c2.4-1.49,6.38-4.45,9.86-8.43c-4.17,10-9.47,19.73-11.65,23.53
				c-20.6-9.35-42.28-3.04-47.91,5.77c-0.93,1.46-1.57,2.88-2,4.22c-0.4,0.92-0.72,1.87-0.93,2.84c-1.16,5.4,1.11,10.46,6.23,13.89
				c1.44,0.97,3.06,1.7,4.79,2.22l-0.01,0.06c0.1,0.02,0.19,0.02,0.29,0.05c1.86,0.53,3.84,0.8,5.91,0.8c0.3,0,0.6-0.02,0.9-0.03
				c3.67,0.27,11.6-0.56,21.62-9.99c5.11-4.81,9.51-11.37,13.15-18.01c9.38,4.23,13.35,9.93,13.66,10.88
				c0.48,1.48-2.1,1.64-1.23,2.84c1.17,1.63,6.73-0.89-3.64-8.97c-2.75-2.15-5.58-3.93-8.44-5.4c5.86-10.83,11.78-21.35,13.35-24.92
				c0.41-0.94,4.8-11.26,4.8-11.26s0.34-0.62-0.35-1.55c-0.78-1.04-4.2-2.36-6.46-2.42c-2.26-0.06-6.36,0.33-8.96,3.34
				c-3.19,3.69-1.82,6.33,0.46,5.94c1.29-0.22,1.92-1.19,1.92-1.19s-1.25,1.17-2.21,0.8c-1.24-0.48,0.69-6.81,6.27-6.86
				c3.13-0.01,3.77,1.92,3.5,2.78c-6.87,18.51-30.77,27.33-36.9,25.87c-2.89-0.68-5.09-2.85-6.11-6.74
				c-1.55-7.3,1.56-19.09,9.21-35.26c25.27,1.71,44.66-15.57,45.42-26.78C132.79,49.26,132.69,47.62,132.1,46.23z M80.6,45.06
				c3.6-0.27,1.16,2.49-3.09,2.88c-0.56,0.05-1.14,0.05-1.74,0.03C77.32,46.46,79,45.18,80.6,45.06z M5.42,121.15
				c-2.65-0.39-4.6-1.27-4.61-2.13c-0.03-1.9,6.69-5.73,16.73-5.47c3.72,0.09,8.17,0.84,12,2.25
				C23.88,120.25,14.52,122.5,5.42,121.15z M76.1,157.1c-2.89,0.34-5.9,0.21-9.01-0.37c-1.89-0.51-3.66-1.26-5.22-2.31
				c-3.02-2.03-5-4.63-5.83-7.53c-0.05-0.15-0.08-0.3-0.12-0.46c-0.12-0.51-0.23-1.01-0.28-1.53c0-0.01,0-0.02,0-0.04
				c-0.12-1.23-0.05-2.5,0.22-3.79c0.2-0.91,0.49-1.81,0.87-2.68c3.58-7.31,14.4-13.76,30.53-13.08c7.56,0.32,13.66,1.74,18.53,3.61
				C99.29,141.43,89.94,154.54,76.1,157.1z M117.24,68.29c-6.92,3.98-12.39,6.26-16.38,7.58c-4.7,1.13-9.43,1.64-13.57,1.47
				c0.15-0.31,0.28-0.6,0.43-0.92c11.43-23.74,25.08-32.5,35.77-33.86c4.08-0.16,6.99,1.13,8.14,3.86c0.35,0.83,0.51,1.76,0.52,2.75
				C131.59,52.11,128.95,61.55,117.24,68.29z"/>
			<path class="st0" d="M74.58,158.48c-0.43,0-0.82-0.02-1.18-0.04l-0.32,0.02c-2.28,0.1-4.51-0.21-6.59-0.8
				c-0.01,0-0.06-0.01-0.1-0.01l-0.15-0.02c-0.1-0.02-0.19-0.07-0.26-0.14c-1.75-0.55-3.33-1.29-4.7-2.22
				c-5.3-3.55-7.65-8.8-6.44-14.41c0.21-0.98,0.53-1.97,0.96-2.94c0.45-1.43,1.15-2.88,2.04-4.29c5.62-8.79,27.09-15.47,48.12-6.14
				c1.4-2.48,6.12-10.96,10.28-20.48c-3.54,3.54-6.93,5.77-8.02,6.44c-8.03,4.88-15.19,7.55-21.27,7.94c-0.79,0-2.4,0-3.82-0.36
				c-1.73-0.45-3.51-1.64-4.88-3.28c-1.11-1.26-2.34-3.51-3.74-6.86c-2.54-6.08-13.97-35.2-7.48-52.76
				c-7.32,9.71-13.25,20.86-22.61,39.99c-4.06,8.3-7.98,14.03-11.65,17.06c3.14,1.25,6.29,2.46,11.43,3.81
				c3.59,0.94,6.27-0.42,7.55-1.31c0.35-0.25,0.59-0.14,0.73,0c0.17,0.18,0.19,0.45,0.04,0.65c-1.65,2.21-6.63,6.71-17.12,0.97
				c-1.98-1.09-4-2.06-4.72-2.4c-1.38,1.03-8.17,5.56-21,5.56c-1.63,0-3.16-0.11-4.44-0.3c-3.32-0.51-5.14-1.54-5.25-2.98
				c-0.07-0.85,0.47-1.78,1.54-2.7c3.21-2.75,13.36-6.68,28.91-2.05c0.76-0.64,1.96-1.68,2.54-2.26c0.8-0.93,1.49-1.9,2.11-2.94
				c2.54-4.3,4.93-9.67,7.7-15.88c4.52-10.12,9.64-21.6,17.12-32.25c1.83-2.61,3.8-4.99,6.01-7.29c1.58-1.91,3.2-3.62,4.81-5.06
				c-1.55-0.35-3.12-0.78-4.64-1.21c-1.09-0.3-2.17-0.6-3.22-0.87c-13.13-3.28-20.93-1.95-30.73,1.66
				c-10.59,3.9-18.08,16.49-19.42,24.08c-0.65,3.71,0.64,6.83,3.54,8.56c3.8,2.27,10.64,2.18,17.33-3.12
				c9.34-7.4,7.03-17.91,6.01-19.26c-1.1-1.45-2.1-2.05-4.24-1.05c-0.17,0.08-0.38,0.06-0.53-0.07c-0.15-0.12-0.21-0.32-0.16-0.51
				c0.15-0.56,1.13-1.49,2.35-1.98c1.05-0.42,2.67-0.69,4.44,0.4c1.76,1.08,2.79,3.51,2.84,6.67c0.07,5.09-2.5,12.77-10,17.68
				c-6.76,4.43-13.9,5.48-18.63,2.76c-3.38-1.95-5.1-5.55-4.84-10.16c0.65-11.8,6.78-20.08,19.29-26.08
				c13.41-6.43,29.28-2.66,33.82-1.36c3.47,1,6.34,1.8,8.74,2.24c2.66-2.04,5.13-3.26,7.54-3.75c1.22-0.24,2.28,0.02,2.89,0.73
				c0.5,0.59,0.63,1.38,0.34,2.17c-0.26,0.7-1.23,2.41-4.8,3.01c-1.1,0.19-2.28,0.23-3.61,0.14c-0.29,0.31-0.56,0.61-0.83,0.92
				c-7.84,9.14-4.16,23.83-0.92,36.79c0.85,3.4,1.67,6.65,2.26,9.71c0.93-4.77,2.78-11.35,6.42-19.11
				c-7.79-1.22-11.43-4.26-10.82-9.04c0.52-4.05,4.09-6.71,10.07-7.5c3.42-0.45,6.01,0.32,6.91,2.08c0.56,1.08,0.34,2.32-0.59,3.31
				c-1.23,1.33-2.83,1.35-2.93,1.35c0,0,0,0,0,0c-0.25,0-0.46-0.19-0.49-0.44c-0.03-0.25,0.13-0.48,0.38-0.54
				c0.46-0.11,1.82-0.61,1.98-1.37c-0.09-0.07-0.86-0.38-2.58-0.38c-0.01,0-0.02,0-0.03,0c-2.97,0-6.76,0.91-7.96,2.61
				c-0.73,1.24-1.46,3.11-0.68,4.76c0.87,1.84,3.37,3.1,7.42,3.76c1.83-3.76,3.91-7.42,6.18-10.91
				c10.6-16.29,22.07-21.6,29.83-23.17c7.07-1.73,12.13-0.36,13.88,3.77l0,0c0.61,1.44,0.75,3.15,0.42,5.09
				c-0.39,5.86-5.79,13.16-13.73,18.56c-9.23,6.28-20.54,9.34-31.88,8.65c-7.49,15.91-10.53,27.56-9.03,34.64
				c0.92,3.53,2.86,5.67,5.74,6.36c5.96,1.4,29.49-7.18,36.32-25.56c0.07-0.22,0.02-0.68-0.28-1.09c-0.49-0.66-1.47-1.06-2.75-1.02
				c-3.69,0.03-5.28,2.93-5.69,3.82c-0.53,1.18-0.48,1.97-0.37,2.1c0.46,0.17,1.32-0.4,1.65-0.72c0.18-0.17,0.47-0.18,0.66-0.02
				c0.19,0.16,0.23,0.44,0.1,0.65c-0.03,0.05-0.77,1.16-2.26,1.41c-1.12,0.19-2.08-0.23-2.58-1.11c-0.8-1.41-0.18-3.53,1.66-5.65
				c2.76-3.2,7.03-3.56,9.35-3.51c2.38,0.06,5.97,1.44,6.85,2.62c0.85,1.15,0.44,1.99,0.39,2.08c0,0-4.37,10.28-4.78,11.23
				c-1.11,2.52-4.39,8.52-8.2,15.48c-1.57,2.88-3.25,5.94-4.93,9.04c2.83,1.5,5.54,3.25,8.07,5.22c6.15,4.79,6.58,7.54,6.3,8.76
				c-0.19,0.8-0.78,1.38-1.57,1.53c-0.71,0.14-1.42-0.11-1.8-0.64c-0.72-0.99,0.12-1.65,0.57-2c0.56-0.44,0.7-0.62,0.59-0.97
				c-0.22-0.69-3.8-6.14-12.97-10.39c-4.2,7.58-8.58,13.54-13.02,17.73C86.26,156.91,78.79,158.48,74.58,158.48z M76.1,157.1
				L76.1,157.1L76.1,157.1z M106.18,128.63c0.02,0.04,0.05,0.07,0.06,0.11c0.05,0.13,0.04,0.28-0.02,0.41
				c-8.17,15.77-17.2,24.91-27.51,27.85c4.11-0.92,9.61-3.4,16.01-9.41c4.45-4.19,8.84-10.2,13.05-17.88
				c0.07-0.13,0.18-0.21,0.31-0.24c0-0.01,0-0.01-0.01-0.02c-0.04-0.13-0.03-0.27,0.04-0.38c1.76-3.25,3.52-6.47,5.17-9.49
				c3.79-6.93,7.07-12.92,8.16-15.4c0.41-0.94,4.8-11.26,4.8-11.26c0.02-0.04,0.18-0.42-0.3-1.06c-0.64-0.87-3.89-2.16-6.07-2.22
				c-2.13-0.06-6.08,0.28-8.57,3.17c-1.82,2.11-1.99,3.71-1.55,4.51c0.14,0.24,0.34,0.42,0.58,0.53c-0.11-0.34-0.13-0.79-0.03-1.33
				c0.41-2.24,2.69-5.8,7.05-5.84c0.01,0,0.02,0,0.04,0c2.05,0,3.05,0.77,3.52,1.43c0.45,0.61,0.61,1.4,0.42,2
				c-6.2,16.69-25.91,25.49-34.66,26.3c0.08,0,0.16,0,0.23,0c5.89-0.38,12.9-3,20.79-7.79c1.26-0.78,5.68-3.68,9.74-8.33
				c0.16-0.19,0.43-0.22,0.64-0.1c0.21,0.13,0.29,0.39,0.2,0.62c-4.67,11.19-10.54,21.61-11.67,23.59
				C106.52,128.54,106.35,128.63,106.18,128.63z M84.84,125.76c-15.74,0-24.72,6.79-27.68,12.85c-0.36,0.83-0.64,1.71-0.83,2.57
				c-0.26,1.22-0.34,2.44-0.22,3.63c0.05,0.47,0.13,0.93,0.27,1.5l0.03,0.12c0.03,0.11,0.05,0.22,0.08,0.32
				c0.82,2.83,2.76,5.34,5.63,7.27c1.45,0.98,3.16,1.73,5.07,2.24c3.04,0.56,6.01,0.68,8.81,0.35
				c10.94-2.02,20.44-10.99,29.05-27.41c-5.32-1.97-11.32-3.11-17.85-3.38C86.41,125.77,85.62,125.76,84.84,125.76z M122.42,141.34
				c-0.08,0.66-0.61,1.08-1,1.38c-0.53,0.42-0.51,0.45-0.38,0.64c0.15,0.21,0.47,0.3,0.8,0.24c0.19-0.04,0.65-0.19,0.79-0.78
				C122.69,142.59,122.72,142.11,122.42,141.34z M84.79,123.95c-12.37,0-22.55,4.66-26.1,10.21c-0.29,0.45-0.56,0.91-0.8,1.38
				c4.39-5.83,14-11.38,29.37-10.74c6.15,0.26,11.84,1.27,16.96,3.02C97.56,125.09,90.91,123.95,84.79,123.95z M30.64,115.82
				c0.07,0,0.14,0.02,0.21,0.05c0.03,0.01,2.56,1.19,5.05,2.56c6.7,3.66,10.92,3.04,13.48,1.48c-1.46,0.43-3.3,0.61-5.41,0.05
				c-5.64-1.49-8.9-2.79-12.35-4.17c-0.17-0.07-0.29-0.22-0.31-0.4c-0.02-0.18,0.05-0.36,0.2-0.46c3.74-2.76,7.79-8.57,12.03-17.24
				C54.15,76,60.37,64.51,69.2,53.77c0.17-0.2,0.47-0.24,0.68-0.09c0.21,0.16,0.27,0.45,0.13,0.67c-10.4,16.2,2.7,49.61,5.44,56.14
				c1.36,3.25,2.53,5.41,3.57,6.59c0.3,0.36,0.6,0.67,0.9,0.95c-1.15-1.21-2.01-2.83-2.53-4.84c-1.56-7.36,1.55-19.33,9.24-35.6
				c0.04-0.08,0.1-0.15,0.18-0.2c-0.01-0.09,0-0.19,0.05-0.27l0.19-0.4c0.08-0.17,0.16-0.35,0.25-0.52
				c10.28-21.34,21.73-29.55,30-32.6c-7.51,1.94-17.89,7.47-27.58,22.37c-2.31,3.55-4.42,7.28-6.27,11.11
				c-0.04,0.09-0.11,0.16-0.19,0.21c0.01,0.09,0,0.19-0.05,0.27c-4.6,9.62-6.41,17.43-7.12,22.29c-0.04,0.24-0.24,0.43-0.49,0.43
				c0,0,0,0,0,0c-0.25,0-0.46-0.18-0.49-0.42c-0.57-3.82-1.62-8.03-2.74-12.48c-3.31-13.2-7.05-28.16,1.13-37.69
				c0.33-0.38,0.67-0.75,1.02-1.12c0.1-0.11,0.25-0.16,0.4-0.15c0.27,0.02,0.54,0.04,0.8,0.05c-0.17-0.03-0.32-0.15-0.38-0.31
				c-0.07-0.19-0.03-0.4,0.12-0.54c2.01-1.97,3.64-2.94,5.14-3.05c0,0,0,0,0,0c0.99-0.08,1.57,0.07,1.89,0.3
				c-0.02-0.04-0.05-0.07-0.08-0.11c-0.37-0.43-1.08-0.58-1.94-0.41c-2.31,0.46-4.7,1.67-7.3,3.69c-0.11,0.09-0.25,0.12-0.39,0.1
				c-0.23-0.04-0.45-0.08-0.69-0.13c0.12,0.06,0.21,0.18,0.25,0.32c0.05,0.19-0.02,0.38-0.16,0.51c-1.81,1.53-3.65,3.43-5.47,5.62
				c-2.21,2.29-4.14,4.63-5.94,7.2c-7.43,10.58-12.53,22-17.03,32.08c-2.78,6.24-5.19,11.62-7.75,15.98
				c-0.64,1.09-1.37,2.11-2.23,3.11c-0.68,0.69-2.09,1.91-2.84,2.53c-0.13,0.11-0.3,0.14-0.46,0.09c-0.74-0.23-1.48-0.43-2.2-0.62
				c0.51,0.16,1,0.33,1.49,0.51c0.17,0.06,0.29,0.21,0.32,0.39c0.03,0.18-0.04,0.36-0.19,0.47c-0.26,0.21-0.54,0.41-0.82,0.61
				c0.84-0.51,1.26-0.85,1.28-0.87C30.41,115.86,30.52,115.82,30.64,115.82z M5.49,120.66c8.36,1.23,17.26-0.61,23.01-4.7
				c-3.37-1.13-7.31-1.82-10.97-1.91c-8.27-0.22-13.9,2.31-15.66,4.06c-0.52,0.52-0.56,0.82-0.56,0.9
				C1.31,119.36,2.58,120.23,5.49,120.66L5.49,120.66z M37.22,56.04c1.46,0,2.4,0.9,3.19,1.93c1.51,1.98,3.2,12.87-5.8,20.33
				c6.11-4.42,8.78-11.26,8.71-16.26c-0.04-2.81-0.9-4.94-2.37-5.83c-1.06-0.65-2.17-0.79-3.31-0.4c-0.2,0.07-0.39,0.15-0.56,0.23
				C37.13,56.04,37.17,56.04,37.22,56.04z M88.06,76.87c3.93,0.08,8.29-0.43,12.68-1.48c4.92-1.63,10.4-4.16,16.25-7.53l0,0
				c11.57-6.65,14.15-16.05,14.67-18.77c-0.02-0.87-0.18-1.73-0.49-2.46c-1.32-3.14-4.89-3.66-7.66-3.55
				c-7.6,0.96-22.36,6.62-35.34,33.57C88.13,76.72,88.1,76.79,88.06,76.87z M131.86,52.1c-1.45,4.27-5.15,11.31-14.38,16.62
				c-5.91,3.4-11.45,5.96-16.47,7.62c-0.02,0-0.03,0.01-0.05,0.01c6.34-1.33,12.39-3.86,17.73-7.49
				C125.9,63.96,130.93,57.51,131.86,52.1z M83.1,62.07c-0.52,0-1.1,0.04-1.72,0.12c-3.88,0.51-8.63,2.08-9.21,6.64
				c-0.36,2.82,0.99,4.91,4.11,6.33c-0.9-0.62-1.54-1.34-1.93-2.16c-0.77-1.62-0.51-3.6,0.75-5.73c2.14-3.05,9.56-3.55,11.59-2.66
				c0.34,0.15,0.54,0.33,0.66,0.51c0.17-0.46,0.15-0.94-0.07-1.38C86.82,62.87,85.51,62.07,83.1,62.07z M47.71,43.59
				c-5.45,0-11.52,0.86-17.14,3.55C18.75,52.8,12.8,60.55,11.91,71.46c1.72-7.88,9.31-20.18,19.9-24.08
				c9.99-3.68,17.94-5.03,31.32-1.69c0.09,0.02,0.19,0.05,0.28,0.07C60.71,45.01,54.72,43.59,47.71,43.59z M117.24,68.29
				L117.24,68.29L117.24,68.29z M80.55,47.72c-0.51,0.21-1.07,0.38-1.67,0.51C79.54,48.1,80.09,47.92,80.55,47.72z M80.64,45.56
				c-1.02,0.08-2.2,0.71-3.59,1.91c0.14-0.01,0.28-0.02,0.41-0.03c2.73-0.25,4.29-1.43,4.37-1.82c-0.02,0-0.21-0.08-0.76-0.08
				C80.95,45.54,80.81,45.54,80.64,45.56L80.64,45.56z"/>
		</g>
		<g>
			<path d="M74.98,110.69c1.72,4.12,2.88,5.84,3.66,6.73c1.53,1.83,3.28,2.77,4.62,3.12s2.86,0.35,3.66,0.35
				c3.05-0.19,9.98-1.14,21.04-7.86c2.4-1.49,6.38-4.45,9.86-8.43c-4.17,10-9.47,19.73-11.65,23.53
				c-20.6-9.35-42.28-3.04-47.91,5.77c-0.93,1.46-1.57,2.88-2,4.22c-0.4,0.92-0.72,1.87-0.93,2.84c-1.16,5.4,1.11,10.46,6.23,13.89
				c1.44,0.97,3.06,1.7,4.79,2.22l-0.01,0.06c0.1,0.02,0.19,0.02,0.29,0.05c1.86,0.53,3.84,0.8,5.91,0.8c0.3,0,0.6-0.02,0.9-0.03
				c3.67,0.27,11.6-0.56,21.62-9.99c5.11-4.81,9.51-11.37,13.15-18.01c9.38,4.23,13.35,9.93,13.66,10.88
				c0.48,1.48-2.1,1.64-1.23,2.84c1.17,1.63,6.73-0.89-3.64-8.97c-2.75-2.15-5.58-3.93-8.44-5.4c5.86-10.83,11.78-21.35,13.35-24.92
				c0.41-0.94,4.8-11.26,4.8-11.26s0.34-0.62-0.35-1.55c-0.78-1.04-4.2-2.36-6.46-2.42c-2.26-0.06-6.36,0.33-8.96,3.34
				c-3.19,3.69-1.82,6.33,0.46,5.94c1.29-0.22,1.92-1.19,1.92-1.19s-1.25,1.17-2.21,0.8c-1.24-0.48,0.69-6.81,6.27-6.86
				c3.13-0.01,3.77,1.92,3.5,2.78c-6.87,18.51-30.77,27.33-36.9,25.87c-2.89-0.68-5.09-2.85-6.11-6.74
				c-1.55-7.3,1.56-19.09,9.21-35.26c25.27,1.71,44.66-15.57,45.42-26.78c0.3-1.78,0.2-3.42-0.39-4.81
				c-1.65-3.91-6.56-5.14-13.32-3.48c-7.88,1.6-19.13,7.01-29.51,22.96c-2.47,3.79-4.55,7.53-6.3,11.16
				c-0.04-0.01-0.07,0.01-0.11,0.01c-8.95-1.38-9.62-5.49-7.34-9.35c2.27-3.23,11.81-3.46,11.46-1.84
				c-0.26,1.25-2.35,1.76-2.35,1.76s1.46,0.01,2.57-1.19c1.96-2.11,0.15-5.35-5.89-4.56c-4.93,0.65-9.08,2.71-9.64,7.07
				c-0.66,5.15,3.99,7.6,11.06,8.58c-4.06,8.49-6.26,16.26-7.16,22.44 M76.1,157.1c-2.89,0.34-5.9,0.21-9.01-0.37
				c-1.89-0.51-3.66-1.26-5.22-2.31c-3.02-2.03-5-4.63-5.83-7.53c-0.05-0.15-0.08-0.3-0.12-0.46c-0.12-0.51-0.23-1.01-0.28-1.53
				c0-0.01,0-0.02,0-0.04c-0.12-1.23-0.05-2.5,0.22-3.79c0.2-0.91,0.49-1.81,0.87-2.68c3.58-7.31,14.4-13.76,30.53-13.08
				c7.56,0.32,13.66,1.74,18.53,3.61C99.29,141.43,89.94,154.54,76.1,157.1z M117.24,68.29c-6.92,3.98-12.39,6.26-16.38,7.58
				c-4.7,1.13-9.43,1.64-13.57,1.47c0.15-0.31,0.28-0.6,0.43-0.92c11.43-23.74,25.08-32.5,35.77-33.86
				c4.08-0.16,6.99,1.13,8.14,3.86c0.35,0.83,0.51,1.76,0.52,2.75C131.59,52.11,128.95,61.55,117.24,68.29z"/>
			<path class="st0" d="M74.58,158.48c-0.43,0-0.82-0.02-1.18-0.04l-0.32,0.02c-2.28,0.1-4.51-0.21-6.59-0.8
				c-0.01,0-0.06-0.01-0.1-0.01l-0.15-0.02c-0.1-0.02-0.19-0.07-0.26-0.14c-1.75-0.55-3.33-1.29-4.7-2.22
				c-5.3-3.55-7.65-8.8-6.44-14.41c0.21-0.98,0.53-1.97,0.96-2.94c0.45-1.43,1.15-2.88,2.04-4.29c5.62-8.79,27.09-15.47,48.12-6.14
				c1.4-2.48,6.12-10.96,10.28-20.48c-3.54,3.54-6.93,5.77-8.02,6.44c-8.03,4.88-15.19,7.55-21.27,7.94c-0.8,0-2.4,0-3.82-0.36
				c-1.73-0.45-3.51-1.64-4.88-3.28c-1.11-1.26-2.34-3.51-3.74-6.86c-0.11-0.25,0.01-0.55,0.27-0.65c0.25-0.11,0.55,0.01,0.65,0.27
				c1.36,3.25,2.53,5.41,3.57,6.59c0.3,0.36,0.6,0.67,0.9,0.95c-1.15-1.21-2-2.83-2.53-4.84c-1.56-7.36,1.55-19.33,9.24-35.6
				c0.04-0.08,0.1-0.15,0.18-0.2c-0.01-0.09,0-0.19,0.05-0.27l0.19-0.4c0.08-0.17,0.16-0.35,0.25-0.52
				c10.28-21.34,21.73-29.55,30-32.6c-7.51,1.94-17.89,7.47-27.58,22.37c-2.31,3.55-4.42,7.28-6.27,11.11
				c-0.04,0.09-0.11,0.16-0.19,0.21c0.01,0.09,0,0.19-0.05,0.27c-4.6,9.62-6.41,17.43-7.12,22.29c-0.04,0.27-0.29,0.47-0.56,0.42
				c-0.27-0.04-0.46-0.29-0.42-0.57c0.7-4.82,2.47-12.52,6.91-21.97c-7.79-1.22-11.43-4.26-10.82-9.04
				c0.52-4.05,4.09-6.71,10.07-7.5c3.42-0.45,6.01,0.32,6.91,2.08c0.56,1.08,0.34,2.32-0.59,3.31c-1.25,1.35-2.85,1.37-2.93,1.35
				c-0.25,0-0.46-0.19-0.49-0.44c-0.03-0.25,0.13-0.48,0.38-0.54c0.46-0.11,1.82-0.61,1.98-1.37c-0.09-0.07-0.86-0.38-2.58-0.38
				c-0.01,0-0.02,0-0.03,0c-2.97,0-6.76,0.91-7.96,2.61c-0.73,1.24-1.46,3.11-0.68,4.76c0.87,1.84,3.37,3.1,7.42,3.76
				c1.83-3.76,3.91-7.42,6.18-10.91c10.6-16.29,22.07-21.6,29.83-23.17c7.07-1.73,12.13-0.36,13.88,3.77
				c0.61,1.44,0.75,3.15,0.42,5.09c-0.39,5.86-5.79,13.16-13.73,18.56c-9.23,6.28-20.54,9.34-31.88,8.65
				c-7.49,15.91-10.53,27.56-9.03,34.64c0.92,3.53,2.86,5.67,5.74,6.36c5.96,1.4,29.49-7.18,36.32-25.56
				c0.07-0.22,0.02-0.68-0.28-1.09c-0.49-0.66-1.47-1.06-2.75-1.02c-3.69,0.03-5.28,2.93-5.69,3.82c-0.53,1.18-0.48,1.97-0.37,2.1
				c0.46,0.18,1.32-0.41,1.66-0.72c0.18-0.17,0.47-0.18,0.66-0.02c0.19,0.16,0.23,0.44,0.1,0.65c-0.03,0.05-0.77,1.16-2.26,1.41
				c-1.12,0.19-2.08-0.23-2.58-1.11c-0.8-1.41-0.18-3.53,1.66-5.65c2.76-3.2,7.03-3.56,9.35-3.51c2.38,0.06,5.97,1.44,6.85,2.62
				c0.85,1.15,0.44,1.99,0.39,2.08c0,0-4.37,10.28-4.78,11.23c-1.11,2.52-4.39,8.52-8.2,15.48c-1.57,2.88-3.25,5.94-4.93,9.04
				c2.83,1.5,5.54,3.25,8.07,5.22c6.15,4.79,6.58,7.54,6.3,8.76c-0.19,0.8-0.78,1.38-1.57,1.53c-0.71,0.14-1.42-0.11-1.8-0.64
				c-0.72-0.99,0.12-1.65,0.57-2c0.56-0.44,0.7-0.62,0.59-0.97c-0.22-0.69-3.8-6.14-12.97-10.39c-4.2,7.58-8.58,13.54-13.02,17.73
				C86.26,156.91,78.79,158.48,74.58,158.48z M76.1,157.1L76.1,157.1L76.1,157.1z M106.18,128.63c0.02,0.04,0.05,0.07,0.06,0.11
				c0.05,0.13,0.04,0.28-0.02,0.41c-8.17,15.77-17.2,24.91-27.51,27.85c4.11-0.92,9.61-3.4,16.01-9.41
				c4.45-4.19,8.84-10.2,13.05-17.88c0.07-0.13,0.18-0.21,0.31-0.24c0-0.01,0-0.01-0.01-0.02c-0.04-0.13-0.03-0.27,0.04-0.38
				c1.76-3.25,3.52-6.47,5.17-9.49c3.79-6.93,7.07-12.92,8.16-15.4c0.41-0.94,4.8-11.26,4.8-11.26c0.02-0.04,0.18-0.42-0.3-1.06
				c-0.64-0.87-3.89-2.16-6.07-2.22c-2.13-0.06-6.08,0.28-8.57,3.17c-1.82,2.11-1.99,3.71-1.55,4.51c0.14,0.24,0.34,0.42,0.58,0.53
				c-0.11-0.34-0.13-0.79-0.03-1.33c0.41-2.24,2.69-5.8,7.05-5.84c0.01,0,0.02,0,0.04,0c2.05,0,3.05,0.77,3.52,1.43
				c0.45,0.61,0.61,1.4,0.42,2c-6.2,16.69-25.91,25.49-34.66,26.3c0.09,0,0.16,0,0.23,0c5.89-0.38,12.9-3,20.79-7.79
				c1.26-0.78,5.68-3.68,9.74-8.33c0.16-0.19,0.43-0.22,0.64-0.1c0.21,0.13,0.29,0.39,0.2,0.62c-4.67,11.19-10.54,21.61-11.67,23.59
				C106.52,128.54,106.35,128.63,106.18,128.63z M84.84,125.76c-15.74,0-24.72,6.79-27.68,12.85c-0.36,0.83-0.64,1.71-0.83,2.57
				c-0.26,1.22-0.34,2.44-0.22,3.63c0.05,0.47,0.13,0.93,0.27,1.5l0.03,0.12c0.03,0.11,0.05,0.22,0.08,0.32
				c0.82,2.83,2.76,5.34,5.63,7.27c1.45,0.98,3.16,1.73,5.07,2.24c3.04,0.56,6.01,0.68,8.81,0.35
				c10.94-2.02,20.44-10.99,29.05-27.41c-5.32-1.97-11.32-3.11-17.85-3.38C86.41,125.77,85.62,125.76,84.84,125.76z M122.42,141.34
				c-0.08,0.66-0.61,1.08-1,1.38c-0.53,0.42-0.51,0.45-0.38,0.64c0.15,0.21,0.47,0.3,0.8,0.24c0.19-0.04,0.65-0.19,0.79-0.78
				C122.69,142.59,122.72,142.11,122.42,141.34z M84.79,123.95c-12.37,0-22.55,4.66-26.1,10.21c-0.29,0.45-0.56,0.91-0.8,1.38
				c4.39-5.83,14-11.38,29.37-10.74c6.15,0.26,11.84,1.27,16.96,3.02C97.56,125.09,90.91,123.95,84.79,123.95z M88.06,76.87
				c3.93,0.08,8.29-0.43,12.68-1.48c4.92-1.63,10.4-4.16,16.25-7.53l0.25,0.43l-0.25-0.43c11.57-6.65,14.15-16.05,14.67-18.77
				c-0.02-0.87-0.18-1.73-0.49-2.46c-1.32-3.14-4.89-3.66-7.66-3.55c-7.6,0.96-22.36,6.62-35.34,33.57
				C88.13,76.72,88.1,76.79,88.06,76.87z M131.86,52.1c-1.45,4.27-5.15,11.31-14.38,16.62c-5.91,3.4-11.45,5.96-16.47,7.62
				c-0.02,0-0.03,0.01-0.05,0.01c6.34-1.33,12.39-3.86,17.73-7.49C125.9,63.96,130.93,57.51,131.86,52.1z M83.1,62.07
				c-0.52,0-1.1,0.04-1.72,0.12c-3.88,0.51-8.63,2.08-9.21,6.64c-0.36,2.82,0.99,4.91,4.11,6.33c-0.9-0.62-1.54-1.34-1.93-2.16
				c-0.77-1.62-0.51-3.6,0.75-5.73c2.14-3.05,9.56-3.55,11.59-2.66c0.34,0.15,0.54,0.33,0.66,0.51c0.17-0.46,0.15-0.94-0.07-1.38
				C86.82,62.87,85.51,62.07,83.1,62.07z"/>
		</g>
	</g>
	<g>
		<path class="st1" d="M190.03,122.25c-0.63-3.56-6.19-1.28-7.74-0.23c-0.41,1.24-1.18,1.74-0.06-0.21
			c-0.84-2.99-5.28-8.23-11.96-5.86c-3.36,1.19-3.49,7.19-2.29,9.85c1.53,3.38,3.41,6.29,5.72,8.59
			C179.07,133.63,191.05,128.1,190.03,122.25z"/>
		<path class="st2" d="M134.52,135.03c10.84,2.16,25.49,2.7,36.54-0.05c0.56-0.14,1.94-0.54,2.49-0.59
			c3.72-0.32,9.9-2.63,12.81-4.42c1.92-1.17,4.57-2.85,5.69-5.39c0.93-2.15,0.8-5.21-1.95-5.87c-1.38-0.33-3.36,0.14-4.81,0.99
			c-8.43,4.97-2.04,6.47-3.03,2.42c-0.69-2.91-5.18-8.4-12-5.99c-3.35,1.17-3.48,7.1-2.28,9.73c3.77,8.23,9.57,13.65,18.89,14.21
			c10.65,0.65,15.69-6.32,11.83-10.74c1.77,4.43-5.09,9.09-11.56,9.24c-8.53,0.18-14.34-2.7-19.84-12.3
			c-2.16-3.8-2.48-10.09,1.92-11.85c4.52-1.82,8.92,0.47,11.46,4.27c0.68,1.01,1.58,2.09,1.58,3.44c1.55-1.04,7.09-3.29,7.72,0.23
			c1.02,5.8-11.01,11.28-16.34,12.02c-17.8,2.48-20.56,1.25-29.75,0.26C139.88,134.19,136.88,135.14,134.52,135.03z"/>
		<path class="st2" d="M138.04,131.42c4.12-14.43,12.11-29.46,20.88-42.95c0.61-0.94,0.97-1.68,0.87-2.94
			c-0.01-0.18-0.21-0.23-0.36-0.14c-0.86,0.48-2.65,2.18-3.15,3.01c-0.16,0.25,0.01,0.42,0.33,0.21l1.98-1.21
			c0.16-0.1,0.25,0.03,0.13,0.19c-9.29,12.63-17.24,28.18-21.64,38.47c-0.26,0.61-0.35,1.02-0.23,1.66l0.71,3.84
			C137.6,131.8,137.91,131.96,138.04,131.42z"/>
		<path class="st3" d="M141.44,105.74c-2.42-0.68-4.98-1.05-7.33-0.85c-0.04,0-0.07,0-0.1,0c-0.45,0-0.89,0.03-1.34,0.07
			c-0.04,0-0.08,0.01-0.12,0.01c-0.08,0.01-0.16,0.02-0.25,0.03c-1.11,0.11-2.2,0.31-3.25,0.66c-5.05,1.69-9.26,5.94-10.95,11.04
			c-1.05,3.15-1.03,6.37-0.15,9.34c0.07,0.32,0.15,0.63,0.24,0.93c1.41,5.58,5.74,10.27,12.21,12.1
			c9.95,2.82,20.49-2.36,23.54-11.56C156.99,118.3,151.39,108.56,141.44,105.74z"/>
		<path class="st4" d="M152.02,114.47c-0.09,3.8-1.42,7.45-3.71,10.74c-8.67,2.12-18.19-0.25-25.39-5.45
			c-1.66-1.2-3.11-2.76-3.92-3.76c2.62-6.02,8.11-10.29,14.6-11.08c0.07-0.01,0.14-0.01,0.22-0.02c2.36-0.02,4.8,0.39,7.2,1.07
			C146.06,107.39,149.9,110.53,152.02,114.47z"/>
		<path class="st2" d="M141.44,105.74c9.96,2.82,15.55,12.57,12.51,21.78c-3.05,9.2-13.59,14.38-23.54,11.56
			c-9.95-2.82-14.88-12.37-11.83-21.57c2.26-6.81,8.08-11.72,15.07-12.58C136.11,104.63,138.86,105,141.44,105.74L141.44,105.74z
			 M140.97,105.97c-4.06-1.16-8.21-1.55-11.92-0.31c-5.05,1.69-9.26,5.94-10.95,11.04c-2.94,8.88,2.46,18.29,12.05,21.01
			c9.59,2.72,19.76-2.27,22.7-11.15C155.8,117.68,150.58,108.68,140.97,105.97z"/>
		<path class="st2" d="M140.38,105.53c7.8,2.85,7.8,14.55-1.49,20.19c6.46-5.78,7.14-11.77,4.45-16.72
			C142.46,107.4,140.76,105.78,140.38,105.53z"/>
		<path class="st2" d="M143.01,106.28c7.8,2.85,6.75,14.3-1.63,19.52c6.22-4.66,7.28-11.1,4.59-16.05
			C145.1,108.14,143.39,106.53,143.01,106.28z"/>
		<path class="st2" d="M144.84,107.26c7.79,2.85,6.82,14.23-0.94,18.4c5.68-4.22,6.59-9.99,3.9-14.93
			C146.93,109.12,145.22,107.51,144.84,107.26z"/>
		<path class="st2" d="M118.75,115.1c1,8.46,19.64,14.13,29.8,9.85c-8.61,2.25-18.14-0.08-25.31-5.27
			C120.92,117.99,119,115.58,118.75,115.1z"/>
		<path class="st2" d="M117.82,118.24c0.94,7.98,18.86,13.49,28.65,9.55c-8.29,2.04-17.46-0.24-24.34-5.2
			C119.9,120.98,118.06,118.69,117.82,118.24z"/>
		<path class="st2" d="M117.47,120.57c0.69,8.02,17.26,13.74,26.46,9.9c-7.77,1.95-16.24-0.44-22.54-5.48
			C119.34,123.35,117.68,121.02,117.47,120.57z"/>
		<path class="st2" d="M128.41,137.48c11.69,2.04,25.7-12.89,23.46-23.59c0.05,8.59-6.35,16.42-15.78,21.11
			C133.04,136.53,129.13,137.42,128.41,137.48z"/>
		<path class="st2" d="M133.14,138.74c9.34,1.41,21.36-12.95,20.06-22.75c-0.37,7.94-5.9,15.43-13.74,20.15
			C136.92,137.67,133.72,138.66,133.14,138.74z"/>
		<path class="st2" d="M134.92,139.33c8.87,1.38,20.08-11.58,18.71-20.53c-0.25,7.23-5.39,14.01-12.76,18.22
			C138.48,138.4,135.47,139.26,134.92,139.33z"/>
		<path class="st2" d="M123.35,127.3c-1.11,3.53,5.56,8.76,10.52,8.67c-3.96-0.48-7.46-2.92-9.49-6.13
			C123.72,128.8,123.36,127.53,123.35,127.3z"/>
		<path class="st2" d="M121.74,126.88c-1.36,3.47,4.83,9.11,9.74,9.32c-3.87-0.72-7.16-3.37-8.91-6.71
			C122,128.4,121.74,127.11,121.74,126.88z"/>
		<path class="st2" d="M120.45,125.84c-1.97,3.21,3.85,9.87,9.08,10.91c-4.05-1.37-7.18-4.57-8.57-8.18
			C120.51,127.39,120.42,126.06,120.45,125.84z"/>
		<path class="st2" d="M144.66,116.54c-3.63-1.47-10.11,3.94-10.67,8.5c1.03-3.57,4.12-6.46,7.82-7.89
			C143.01,116.69,144.41,116.53,144.66,116.54z"/>
		<path class="st2" d="M145.37,114.02c-4.16-2.15-12.69,4.87-14,11c1.74-4.76,5.84-8.53,10.49-10.29
			C143.37,114.14,145.07,113.99,145.37,114.02z"/>
		<path class="st2" d="M144.59,111.75c-4.48-2.3-13.64,5.25-15.05,11.82c1.87-5.11,6.28-9.16,11.27-11.06
			C142.44,111.89,144.28,111.71,144.59,111.75z"/>
		<path class="st2" d="M121.01,111.46c-1.12,3.53,5.31,8.68,10.13,8.55c-3.84-0.44-7.23-2.85-9.16-6.03
			C121.36,112.95,121.02,111.69,121.01,111.46z"/>
		<path class="st2" d="M120.13,113.01c-1.11,3.53,5.56,8.75,10.52,8.66c-3.96-0.47-7.46-2.92-9.49-6.13
			C120.5,114.51,120.14,113.24,120.13,113.01z"/>
		<path class="st2" d="M122.25,110.16c-1.11,3.53,5.16,8.64,9.89,8.48c-3.76-0.42-7.07-2.8-8.95-5.97
			C122.58,111.65,122.26,110.38,122.25,110.16z"/>
		<path class="st2" d="M129.22,105.85c4.75,0.15,7.84,3.63,8.48,7.61l-0.8,0.84c-0.43-2.26-1.74-4.39-3.79-6.2
			C131.76,106.92,129.65,105.97,129.22,105.85z"/>
		<path class="st2" d="M131.26,105.26c4.41-0.25,7.9,3.25,8.87,6.89l-0.96,0.31c-0.61-2.06-2.03-3.92-4.1-5.42
			C133.71,106.04,131.67,105.34,131.26,105.26z"/>
		<path class="st2" d="M133.7,104.9c4.26-0.25,7.63,3.14,8.57,6.65l-0.92,0.29c-0.59-1.99-1.97-3.79-3.96-5.24
			C136.07,105.65,134.09,104.96,133.7,104.9z"/>
		<path class="st2" d="M132.39,107c-2.89-1.43-8.59,2.65-9.36,6.36c1.1-2.87,3.83-5.07,6.97-6.03
			C131.03,107.02,132.19,106.97,132.39,107z"/>
		<path class="st2" d="M133.28,107.88c-2.89-1.43-8.59,2.65-9.36,6.37c1.1-2.88,3.83-5.07,6.97-6.03
			C131.92,107.91,133.08,107.85,133.28,107.88z"/>
		<path class="st2" d="M134.23,108.93c-2.89-1.43-8.59,2.64-9.36,6.36c1.09-2.87,3.83-5.07,6.97-6.03
			C132.86,108.95,134.03,108.9,134.23,108.93z"/>
		<path class="st5" d="M174.51,132.67c-0.86-1.5-2.93-5.57-1.85-7.43c0.33-0.59,1.1-1.22,2.13-1.1c1.41,0.17,2.57,1.91,2.67,3.39
			c1.82-1.19,3.45-0.89,3.9-0.44C183.33,129.09,179.35,131.73,174.51,132.67z"/>
	</g>
</g>
</svg>
