<?xml version="1.0" encoding="utf-8"?>
<!-- Generator: Adobe Illustrator 24.3.0, SVG Export Plug-In . SVG Version: 6.00 Build 0)  -->
<svg version="1.1" id="Layer_1" xmlns="http://www.w3.org/2000/svg" xmlns:xlink="http://www.w3.org/1999/xlink" x="0px" y="0px"
	 viewBox="0 0 100 100" style="enable-background:new 0 0 100 100;" xml:space="preserve">
<style type="text/css">
	.st0{fill:#00A5EA;}
	.st1{fill-rule:evenodd;clip-rule:evenodd;}
	.st2{fill:#FFED00;}
	.st3{fill:#00A6EB;}
	.st4{fill-rule:evenodd;clip-rule:evenodd;fill:#FFEC00;}
</style>
<g>
	<g>
		<path class="st0" d="M87.95,61.51c-0.76-4.3-7.48-1.54-9.35-0.28c-0.5,1.5-1.43,2.1-0.07-0.25c-1.02-3.61-6.39-9.96-14.47-7.08
			c-4.06,1.43-4.22,8.69-2.77,11.9c1.86,4.09,4.13,7.6,6.92,10.39C74.69,75.27,89.18,68.58,87.95,61.51z"/>
		<path class="st1" d="M20.82,76.96c13.11,2.62,30.82,3.27,44.19-0.05c0.67-0.16,2.34-0.65,3.01-0.71
			c4.5-0.38,11.97-3.18,15.49-5.34c2.32-1.42,5.52-3.45,6.88-6.52c1.13-2.6,0.96-6.3-2.36-7.1c-1.67-0.4-4.07,0.16-5.81,1.2
			c-10.19,6.01-2.47,7.83-3.67,2.92c-0.84-3.52-6.27-10.15-14.51-7.25c-4.05,1.42-4.21,8.59-2.76,11.77
			c4.56,9.95,11.57,16.51,22.85,17.18c12.88,0.78,18.98-7.65,14.31-12.98c2.14,5.36-6.16,10.99-13.98,11.17
			c-10.32,0.22-17.34-3.27-23.99-14.87c-2.62-4.59-3-12.2,2.32-14.33c5.47-2.2,10.79,0.56,13.86,5.16c0.82,1.22,1.91,2.52,1.91,4.16
			c1.87-1.25,8.57-3.98,9.33,0.27c1.24,7.01-13.31,13.64-19.76,14.53c-21.52,3-24.86,1.51-35.98,0.31
			C27.3,75.94,23.67,77.09,20.82,76.96z"/>
		<path class="st1" d="M25.08,72.59c4.99-17.45,14.65-35.63,25.25-51.94c0.74-1.14,1.17-2.03,1.05-3.55
			c-0.02-0.22-0.26-0.27-0.44-0.17c-1.04,0.58-3.2,2.63-3.81,3.64c-0.19,0.31,0.01,0.5,0.4,0.26l2.4-1.47
			c0.19-0.12,0.3,0.04,0.16,0.23C38.86,34.86,29.24,53.67,23.92,66.1c-0.32,0.74-0.42,1.23-0.28,2.01l0.85,4.64
			C24.55,73.05,24.93,73.24,25.08,72.59z"/>
		<path class="st2" d="M29.19,41.53c-2.93-0.83-6.03-1.27-8.86-1.02c-0.04,0-0.08,0-0.13,0c-0.54,0-1.08,0.03-1.62,0.08
			c-0.05,0-0.1,0.01-0.15,0.01c-0.1,0.01-0.2,0.02-0.3,0.03c-1.34,0.13-2.66,0.38-3.93,0.8C8.1,43.48,3.02,48.62,0.97,54.79
			c-1.26,3.81-1.24,7.71-0.18,11.29c0.08,0.38,0.18,0.76,0.29,1.13c1.7,6.75,6.94,12.42,14.77,14.64
			C27.87,85.26,40.62,79,44.31,67.87C48,56.73,41.23,44.95,29.19,41.53z"/>
		<path class="st3" d="M41.98,52.1c-0.11,4.6-1.72,9.01-4.48,12.98c-10.48,2.57-22-0.3-30.7-6.59c-2-1.45-3.76-3.34-4.74-4.54
			c3.17-7.28,9.8-12.44,17.66-13.4c0.09-0.01,0.17-0.01,0.26-0.02c2.85-0.02,5.8,0.47,8.71,1.3C34.77,43.54,39.42,47.33,41.98,52.1z
			"/>
		<path class="st1" d="M29.19,41.53C41.23,44.95,48,56.73,44.31,67.87C40.62,79,27.87,85.26,15.84,81.85
			C3.81,78.43-2.15,66.89,1.54,55.76c2.73-8.23,9.77-14.17,18.22-15.21C22.74,40.19,26.07,40.65,29.19,41.53L29.19,41.53z
			 M28.63,41.82c-4.91-1.4-9.93-1.88-14.41-0.38C8.1,43.48,3.02,48.62,0.97,54.79c-3.56,10.74,2.97,22.12,14.58,25.4
			c11.6,3.29,23.89-2.75,27.45-13.48C46.55,55.97,40.24,45.1,28.63,41.82z"/>
		<path class="st1" d="M27.9,41.29c9.43,3.45,9.44,17.59-1.8,24.41c7.81-6.99,8.63-14.23,5.38-20.21
			C30.43,43.54,28.36,41.59,27.9,41.29z"/>
		<path class="st1" d="M31.09,42.19c9.43,3.45,8.16,17.29-1.97,23.6c7.52-5.63,8.8-13.43,5.55-19.41
			C33.61,44.44,31.55,42.5,31.09,42.19z"/>
		<path class="st1" d="M33.3,43.37c9.42,3.45,8.25,17.2-1.14,22.25c6.87-5.11,7.97-12.08,4.71-18.05
			C35.82,45.63,33.76,43.68,33.3,43.37z"/>
		<path class="st1" d="M1.76,52.86C2.96,63.09,25.51,69.95,37.8,64.77c-10.41,2.72-21.93-0.1-30.6-6.38
			C4.38,56.36,2.05,53.44,1.76,52.86z"/>
		<path class="st1" d="M0.63,56.65C1.76,66.3,23.44,72.96,35.28,68.2c-10.03,2.47-21.11-0.3-29.43-6.29
			C3.14,59.97,0.92,57.19,0.63,56.65z"/>
		<path class="st1" d="M0.2,59.48c0.84,9.69,20.87,16.62,32,11.97c-9.39,2.36-19.64-0.53-27.26-6.63
			C2.47,62.83,0.46,60.02,0.2,59.48z"/>
		<path class="st1" d="M13.43,79.92c14.13,2.47,31.08-15.59,28.37-28.53c0.06,10.38-7.68,19.86-19.08,25.53
			C19.03,78.76,14.3,79.85,13.43,79.92z"/>
		<path class="st1" d="M19.15,81.45c11.29,1.7,25.83-15.66,24.25-27.51c-0.44,9.6-7.14,18.65-16.61,24.36
			C23.72,80.15,19.86,81.35,19.15,81.45z"/>
		<path class="st1" d="M21.3,82.16c10.72,1.67,24.28-14.01,22.62-24.83c-0.3,8.75-6.52,16.94-15.43,22.04
			C25.62,81.03,21.97,82.07,21.3,82.16z"/>
		<path class="st1" d="M7.31,67.61C5.97,71.88,14.04,78.2,20.03,78.1c-4.79-0.58-9.03-3.53-11.48-7.41
			C7.76,69.42,7.33,67.88,7.31,67.61z"/>
		<path class="st1" d="M5.37,67.1c-1.65,4.19,5.85,11.01,11.78,11.27c-4.68-0.87-8.66-4.08-10.78-8.12
			C5.68,68.94,5.37,67.38,5.37,67.1z"/>
		<path class="st1" d="M3.81,65.84c-2.38,3.89,4.65,11.93,10.98,13.19c-4.9-1.65-8.68-5.52-10.37-9.89
			C3.88,67.72,3.77,66.12,3.81,65.84z"/>
		<path class="st1" d="M33.08,54.6c-4.39-1.78-12.23,4.76-12.9,10.28c1.24-4.31,4.98-7.81,9.45-9.54
			C31.08,54.78,32.79,54.58,33.08,54.6z"/>
		<path class="st1" d="M33.94,51.55c-5.03-2.59-15.35,5.89-16.93,13.3c2.1-5.76,7.07-10.31,12.68-12.45
			C31.52,51.7,33.58,51.52,33.94,51.55z"/>
		<path class="st1" d="M33,48.8c-5.41-2.79-16.49,6.34-18.2,14.29c2.26-6.18,7.59-11.07,13.63-13.38
			C30.39,48.97,32.62,48.76,33,48.8z"/>
		<path class="st1" d="M4.49,48.46c-1.35,4.27,6.42,10.5,12.25,10.34c-4.64-0.54-8.74-3.45-11.07-7.29
			C4.91,50.26,4.5,48.73,4.49,48.46z"/>
		<path class="st1" d="M3.42,50.34c-1.34,4.26,6.72,10.58,12.72,10.47c-4.79-0.57-9.03-3.53-11.48-7.41
			C3.87,52.14,3.44,50.61,3.42,50.34z"/>
		<path class="st1" d="M5.98,46.88c-1.34,4.26,6.24,10.45,11.96,10.25c-4.55-0.51-8.54-3.39-10.82-7.22
			C6.38,48.68,6,47.16,5.98,46.88z"/>
		<path class="st1" d="M14.41,41.68c5.74,0.18,9.48,4.39,10.25,9.2L23.7,51.9c-0.52-2.73-2.1-5.31-4.58-7.49
			C17.48,42.97,14.94,41.82,14.41,41.68z"/>
		<path class="st1" d="M16.88,40.96c5.33-0.31,9.55,3.93,10.73,8.33l-1.16,0.37c-0.74-2.49-2.46-4.74-4.95-6.55
			C19.84,41.9,17.38,41.05,16.88,40.96z"/>
		<path class="st1" d="M19.83,40.52c5.16-0.3,9.23,3.8,10.37,8.05l-1.12,0.35c-0.71-2.4-2.38-4.58-4.79-6.34
			C22.69,41.43,20.3,40.6,19.83,40.52z"/>
		<path class="st1" d="M18.25,43.06c-3.49-1.73-10.38,3.2-11.32,7.69c1.33-3.47,4.63-6.13,8.43-7.29
			C16.6,43.08,18.01,43.03,18.25,43.06z"/>
		<path class="st1" d="M19.33,44.13c-3.49-1.73-10.39,3.2-11.32,7.7c1.33-3.48,4.63-6.14,8.43-7.29
			C17.67,44.16,19.09,44.1,19.33,44.13z"/>
		<path class="st1" d="M20.47,45.4c-3.49-1.73-10.39,3.2-11.32,7.69c1.32-3.47,4.63-6.14,8.43-7.29
			C18.81,45.42,20.23,45.36,20.47,45.4z"/>
		<path class="st4" d="M69.18,74.11c-1.04-1.82-3.54-6.74-2.23-8.99c0.4-0.71,1.33-1.47,2.58-1.33c1.71,0.2,3.11,2.31,3.23,4.1
			c2.2-1.43,4.18-1.07,4.72-0.53C79.84,69.77,75.03,72.96,69.18,74.11z"/>
	</g>
</g>
</svg>
