<?xml version="1.0" encoding="utf-8"?>
<!-- Generator: Adobe Illustrator 24.3.0, SVG Export Plug-In . SVG Version: 6.00 Build 0)  -->
<svg version="1.1" id="Layer_1" xmlns="http://www.w3.org/2000/svg" xmlns:xlink="http://www.w3.org/1999/xlink" x="0px" y="0px"
	 viewBox="0 0 1417.32 1417.32" style="enable-background:new 0 0 1417.32 1417.32;" xml:space="preserve">
<style type="text/css">
	.st0{font-family:'MonotypeCorsiva';}
	.st1{font-size:242.2948px;}
	.st2{fill-rule:evenodd;clip-rule:evenodd;fill:#010000;}
	.st3{fill:#FFED00;}
	.st4{fill:#00A6EB;}
	.st5{fill-rule:evenodd;clip-rule:evenodd;}
	.st6{fill-rule:evenodd;clip-rule:evenodd;fill:#FFED00;}
</style>
<g>
	<text transform="matrix(0.9 0 0 1 16.2963 1235.4822)" class="st0 st1">Bambole da NG</text>
	<g>
		<g>
			<g>
				<path d="M1081.53,141.47c-13.3-31.52-52.79-41.39-107.27-28.02c-63.46,12.92-154.05,56.49-237.61,184.87
					c-19.89,30.53-36.61,60.67-50.77,89.9c-0.32-0.08-0.55,0.06-0.85,0.06c-72.09-11.11-77.45-44.19-59.1-75.27
					c18.24-26.01,95.08-27.87,92.3-14.8c-2.13,10.09-18.91,14.14-18.91,14.14s11.72,0.06,20.66-9.59
					c15.8-17.02,1.19-43.12-47.45-36.69c-39.7,5.24-73.13,21.79-77.61,56.94c-5.29,41.51,32.15,61.17,89.09,69.09
					c-32.68,68.34-50.41,130.93-57.65,180.67C607.87,449.28,526.35,272.36,612.48,172c2.6-2.97,5.29-5.94,8.09-8.9
					c10.29,0.82,20.36,0.68,30.02-0.96c48.46-8.12,43.99-45.69,14.14-39.72c-21.15,4.24-41.56,15.83-60.45,30.51
					c-19.79-3.45-42.91-9.9-72.54-18.4c-50.44-14.51-170-36.98-269.49,10.68c-99.49,47.7-147.88,112.97-153.06,206.61
					c-4.95,89.79,86.74,118.85,182.78,55.98c85.86-56.23,95.36-166.18,57.7-189.31c-24.65-15.21-47.33,5.17-48.68,10.35
					c20.02-9.33,29.97-2.26,39.01,9.67c11.06,14.5,25.9,101.24-49.08,160.64c-87.02,68.96-189.24,36.16-174.47-47.67
					c10.72-60.81,70.82-164.46,158.92-196.94c73.22-26.94,137.85-41.45,249.81-13.46c22.9,5.71,47.19,13.57,70.99,18.32
					c-16.65,14.08-31.69,30.25-44.53,45.8c-16.34,16.93-32.51,36.1-48.03,58.21c-96.66,137.66-145.52,295.33-199.69,387.27
					c-5.48,9.3-11.42,17.3-17.56,24.45c-5.15,5.2-16.2,14.78-22.36,19.88c-125.13-37.83-205.46-6.84-231.12,15.13
					c-7.52,6.45-11.43,12.95-11.01,18.37c0.75,9.41,14.58,16.63,38.93,20.38c9.78,1.53,21.77,2.4,35.14,2.4
					c113.92,0,168.57-45.4,168.57-45.4s20.27,9.41,40.43,20.47c80.06,43.79,118.37,12.44,132.68-6.64
					c0.88-1.19-25.39,21.91-64.77,11.56c-44.56-11.73-70.48-22.02-99.01-33.44c29.04-21.49,61.72-65.96,98.13-140.32
					C460.01,377.74,509.12,288.8,578.13,204.8c-75.72,117.92-0.91,349.76,43.44,455.8c13.89,33.21,23.19,47.06,29.48,54.19
					c12.33,14.73,26.42,22.34,37.22,25.12c10.79,2.78,23.03,2.79,29.48,2.78c24.54-1.57,80.36-9.21,169.45-63.32
					c19.35-11.96,51.38-35.81,79.4-67.88c-33.62,80.55-76.27,158.89-93.79,189.51c-165.9-75.26-340.45-24.48-385.8,46.45
					c-7.49,11.76-12.67,23.15-16.13,33.96c-3.24,7.41-5.77,15.07-7.45,22.87c-9.33,43.45,8.94,84.22,50.19,111.87
					c11.64,7.83,24.65,13.68,38.55,17.87l-0.1,0.45c0.78,0.14,1.55,0.2,2.36,0.37c14.97,4.24,30.93,6.42,47.55,6.42
					c2.4,0,4.82-0.2,7.22-0.25c29.57,2.18,93.38-4.53,174.06-80.43c41.14-38.71,76.57-91.57,105.89-145.01
					c75.53,34.1,107.46,79.95,109.97,87.61c3.84,11.9-16.91,13.18-9.91,22.85c9.41,13.09,54.15-7.15-29.29-72.2
					c-22.15-17.28-44.92-31.61-67.98-43.51c47.19-87.24,94.88-171.94,107.51-200.69c3.33-7.61,38.67-90.7,38.67-90.7
					s2.7-5.03-2.85-12.49c-6.24-8.4-33.78-19.01-52.01-19.5c-18.23-0.49-51.23,2.64-72.18,26.89
					c-25.67,29.71-14.63,50.95,3.69,47.86c10.38-1.75,15.49-9.61,15.49-9.61s-10.08,9.45-17.77,6.44
					c-9.96-3.88,5.57-54.82,50.45-55.23c25.18-0.11,30.39,15.5,28.19,22.38C935.79,674.67,743.42,745.73,694,733.99
					c-23.3-5.51-41.02-22.93-49.22-54.25c-12.5-58.78,12.57-153.72,74.14-283.91c203.47,13.8,359.66-125.36,365.75-215.63
					C1087.11,165.87,1086.26,152.67,1081.53,141.47z M666.85,132.08c28.95-2.21,9.33,20.05-24.88,23.15
					c-4.5,0.4-9.19,0.42-13.99,0.28C640.42,143.33,653.98,133.08,666.85,132.08z M61.45,744.82c-21.35-3.17-37.02-10.21-37.12-17.19
					c-0.25-15.27,53.9-46.11,134.73-44.05c29.97,0.76,65.82,6.76,96.66,18.15C210.09,737.53,134.72,755.62,61.45,744.82z
					 M630.59,1034.24c-23.28,2.77-47.48,1.73-72.59-2.94c-15.25-4.07-29.5-10.15-42.07-18.57c-24.3-16.31-40.23-37.32-46.96-60.67
					c-0.37-1.19-0.65-2.43-0.98-3.73c-1-4.07-1.85-8.17-2.28-12.35c-0.03-0.09-0.03-0.2-0.03-0.31c-1-9.93-0.43-20.13,1.81-30.51
					c1.6-7.35,3.96-14.56,6.97-21.57c28.79-58.89,115.96-110.77,245.84-105.31c60.9,2.57,110.03,14.05,149.25,29.09
					C817.35,908.06,742.05,1013.69,630.59,1034.24z M961.85,319.1c-55.68,32.03-99.8,50.44-131.89,61.04
					c-37.87,9.11-75.93,13.23-109.26,11.88c1.2-2.52,2.23-4.86,3.46-7.38c92.05-191.17,201.92-261.71,288.02-272.63
					c32.84-1.3,56.26,9.13,65.52,31.07c2.81,6.67,4.11,14.13,4.18,22.14C1077.41,188.82,1056.17,264.85,961.85,319.1z"/>
			</g>
			<path d="M621.57,660.6c13.89,33.21,23.19,47.06,29.48,54.19c12.33,14.73,26.42,22.34,37.22,25.12
				c10.79,2.78,23.03,2.79,29.48,2.78c24.54-1.57,80.36-9.21,169.45-63.32c19.35-11.96,51.38-35.81,79.4-67.88
				c-33.62,80.55-76.27,158.89-93.79,189.51c-165.9-75.26-340.45-24.48-385.8,46.45c-7.49,11.76-12.67,23.15-16.13,33.96
				c-3.24,7.41-5.77,15.07-7.45,22.87c-9.33,43.45,8.94,84.22,50.19,111.87c11.64,7.83,24.65,13.68,38.55,17.87l-0.1,0.45
				c0.78,0.14,1.55,0.2,2.36,0.37c14.97,4.24,30.93,6.42,47.55,6.42c2.4,0,4.82-0.2,7.22-0.25c29.57,2.18,93.38-4.53,174.06-80.43
				c41.14-38.71,76.57-91.57,105.89-145.01c75.53,34.1,107.46,79.95,109.97,87.61c3.84,11.9-16.91,13.18-9.91,22.85
				c9.41,13.09,54.15-7.15-29.29-72.2c-22.15-17.28-44.92-31.61-67.98-43.51c47.19-87.24,94.88-171.94,107.51-200.69
				c3.33-7.61,38.67-90.7,38.67-90.7s2.7-5.03-2.85-12.49c-6.24-8.4-33.78-19.01-52.01-19.5c-18.23-0.49-51.23,2.64-72.18,26.89
				c-25.67,29.71-14.63,50.95,3.69,47.86c10.38-1.75,15.49-9.61,15.49-9.61s-10.08,9.45-17.77,6.44
				c-9.96-3.88,5.57-54.82,50.45-55.23c25.18-0.11,30.39,15.5,28.19,22.38C935.79,674.67,743.42,745.73,694,733.99
				c-23.3-5.51-41.02-22.93-49.22-54.25c-12.5-58.78,12.57-153.72,74.14-283.91c203.47,13.8,359.66-125.36,365.75-215.63
				c2.43-14.33,1.58-27.54-3.15-38.73c-13.3-31.52-52.79-41.39-107.27-28.02c-63.46,12.92-154.05,56.49-237.61,184.87
				c-19.89,30.53-36.61,60.67-50.77,89.9c-0.32-0.08-0.55,0.06-0.85,0.06c-72.09-11.11-77.45-44.19-59.1-75.27
				c18.24-26.01,95.08-27.87,92.3-14.8c-2.13,10.09-18.91,14.14-18.91,14.14s11.72,0.06,20.66-9.59
				c15.8-17.02,1.19-43.12-47.45-36.69c-39.7,5.24-73.13,21.79-77.61,56.94c-5.29,41.51,32.15,61.17,89.09,69.09
				c-32.68,68.34-50.41,130.93-57.65,180.67 M630.59,1034.24c-23.28,2.77-47.48,1.73-72.59-2.94c-15.25-4.07-29.5-10.15-42.07-18.57
				c-24.3-16.31-40.23-37.32-46.96-60.67c-0.37-1.19-0.65-2.43-0.98-3.73c-1-4.07-1.85-8.17-2.28-12.35
				c-0.03-0.09-0.03-0.2-0.03-0.31c-1-9.93-0.43-20.13,1.81-30.51c1.6-7.35,3.96-14.56,6.97-21.57
				c28.79-58.89,115.96-110.77,245.84-105.31c60.9,2.57,110.03,14.05,149.25,29.09C817.35,908.06,742.05,1013.69,630.59,1034.24z
				 M961.85,319.1c-55.68,32.03-99.8,50.44-131.89,61.04c-37.87,9.11-75.93,13.23-109.26,11.88c1.2-2.52,2.23-4.86,3.46-7.38
				c92.05-191.17,201.92-261.71,288.02-272.63c32.84-1.3,56.26,9.13,65.52,31.07c2.81,6.67,4.11,14.13,4.18,22.14
				C1077.41,188.82,1056.17,264.85,961.85,319.1z"/>
		</g>
		<g>
			<path class="st2" d="M1129.39,827.51c33.21-116.18,97.54-237.26,168.15-345.86c4.92-7.56,7.82-13.54,7-23.65
				c-0.12-1.47-1.72-1.82-2.92-1.15c-6.9,3.85-21.31,17.54-25.37,24.21c-1.25,2.05,0.05,3.34,2.68,1.73l15.96-9.77
				c1.29-0.79,1.99,0.24,1.05,1.52c-74.79,101.7-138.84,226.94-174.29,309.74c-2.1,4.9-2.79,8.18-1.83,13.4l5.69,30.93
				C1125.85,830.53,1128.35,831.83,1129.39,827.51z"/>
			<path class="st3" d="M1156.74,620.66c-19.5-5.51-40.13-8.45-58.99-6.82c-0.28,0-0.56-0.02-0.84-0.02c-3.61,0-7.2,0.22-10.78,0.56
				c-0.33,0.02-0.67,0.06-1,0.09c-0.66,0.07-1.32,0.14-1.98,0.22c-8.93,0.85-17.69,2.5-26.15,5.33
				c-40.7,13.58-74.55,47.81-88.18,88.93c-8.42,25.4-8.26,51.31-1.22,75.18c0.56,2.55,1.2,5.05,1.9,7.52
				c11.34,44.95,46.24,82.68,98.36,97.47c80.11,22.73,164.98-18.98,189.58-93.1C1281.99,721.84,1236.9,643.39,1156.74,620.66z"/>
			<path class="st4" d="M1241.93,690.99c-0.7,30.64-11.43,59.99-29.85,86.47c-69.81,17.11-146.5-1.98-204.47-43.92
				c-13.35-9.65-25.05-22.21-31.58-30.25c21.11-48.51,65.29-82.85,117.6-89.26c0.57-0.07,1.16-0.09,1.74-0.15
				c19.01-0.17,38.62,3.13,57.98,8.64C1193.93,634.01,1224.87,659.26,1241.93,690.99z"/>
			<path class="st5" d="M1156.74,620.66c80.16,22.73,125.24,101.18,100.7,175.35c-24.6,74.12-109.47,115.83-189.58,93.1
				c-80.11-22.73-119.79-99.58-95.24-173.7c18.18-54.81,65.03-94.39,121.34-101.29C1113.8,611.73,1135.94,614.78,1156.74,620.66
				L1156.74,620.66z M1153,622.53c-32.68-9.3-66.1-12.51-95.99-2.51c-40.7,13.58-74.55,47.81-88.18,88.93
				c-23.69,71.5,19.79,147.28,97.06,169.15c77.22,21.93,159.1-18.29,182.79-89.79C1272.36,716.81,1230.33,644.41,1153,622.53z"/>
			<path class="st5" d="M1148.19,619c62.78,22.94,62.84,117.17-11.98,162.57c51.98-46.53,57.49-94.76,35.83-134.6
				C1164.98,634.03,1151.23,621.04,1148.19,619z"/>
			<path class="st5" d="M1169.42,625.05c62.78,22.94,54.33,115.14-13.1,157.17c50.11-37.49,58.61-89.41,36.95-129.26
				C1186.21,640.02,1172.46,627.08,1169.42,625.05z"/>
			<path class="st5" d="M1184.12,632.91c62.73,22.94,54.92,114.55-7.59,148.19c45.78-34.01,53.1-80.43,31.39-120.22
				C1200.91,647.94,1187.17,634.94,1184.12,632.91z"/>
			<path class="st5" d="M974.05,696.08c8.04,68.12,158.18,113.8,240,79.32c-69.35,18.09-146.04-0.68-203.79-42.46
				C991.5,719.37,976.02,699.92,974.05,696.08z"/>
			<path class="st5" d="M966.56,721.33c7.54,64.23,151.88,108.64,230.72,76.92c-66.78,16.42-140.57-1.97-195.98-41.86
				C983.3,743.43,968.47,724.94,966.56,721.33z"/>
			<path class="st5" d="M963.69,740.14c5.58,64.55,138.97,110.66,213.08,79.69c-62.53,15.72-130.79-3.51-181.53-44.15
				C978.78,762.5,965.39,743.75,963.69,740.14z"/>
			<path class="st5" d="M1051.82,876.3c94.11,16.45,206.98-103.8,188.91-189.99c0.38,69.14-51.16,132.23-127.04,170.02
				C1089.08,868.6,1057.61,875.8,1051.82,876.3z"/>
			<path class="st5" d="M1089.89,886.45c75.19,11.34,172.04-104.28,161.5-183.21c-2.94,63.91-47.54,124.23-110.65,162.25
				C1120.32,877.84,1094.6,885.8,1089.89,886.45z"/>
			<path class="st5" d="M1104.23,891.21c71.39,11.12,161.66-93.27,150.65-165.35c-1.98,58.24-43.42,112.78-102.73,146.74
				C1132.94,883.66,1108.67,890.62,1104.23,891.21z"/>
			<path class="st5" d="M1011.07,794.3c-8.93,28.45,44.76,70.54,84.71,69.84c-31.87-3.85-60.11-23.53-76.42-49.36
				C1014.06,806.39,1011.18,796.12,1011.07,794.3z"/>
			<path class="st5" d="M998.13,790.93c-10.96,27.92,38.93,73.32,78.45,75.03c-31.18-5.78-57.65-27.17-71.77-54.07
				C1000.21,803.18,998.13,792.75,998.13,790.93z"/>
			<path class="st5" d="M987.75,782.54c-15.83,25.88,30.96,79.47,73.1,87.86c-32.62-11.02-57.81-36.79-69.04-65.88
				C988.18,795.05,987.48,784.36,987.75,782.54z"/>
			<path class="st5" d="M1182.68,707.67c-29.25-11.87-81.45,31.71-85.94,68.45c8.29-28.72,33.16-51.98,62.94-63.53
				C1169.36,708.85,1180.7,707.56,1182.68,707.67z"/>
			<path class="st5" d="M1188.4,687.35c-33.48-17.27-102.2,39.25-112.73,88.56c14.01-38.34,47.06-68.67,84.44-82.89
				C1172.25,688.36,1185.99,687.13,1188.4,687.35z"/>
			<path class="st5" d="M1182.14,669.06c-36.04-18.56-109.84,42.25-121.18,95.19c15.03-41.18,50.54-73.75,90.75-89.09
				C1164.76,670.18,1179.58,668.79,1182.14,669.06z"/>
			<path class="st5" d="M992.24,666.76c-8.98,28.45,42.78,69.9,81.61,68.88c-30.91-3.58-58.18-22.94-73.75-48.56
				C995.03,678.74,992.35,668.58,992.24,666.76z"/>
			<path class="st5" d="M985.13,679.27c-8.93,28.4,44.76,70.48,84.71,69.74c-31.87-3.8-60.11-23.48-76.42-49.36
				C988.13,691.31,985.24,681.09,985.13,679.27z"/>
			<path class="st5" d="M1002.19,656.28c-8.93,28.4,41.55,69.57,79.63,68.29c-30.27-3.37-56.9-22.57-72.03-48.08
				C1004.87,668.26,1002.3,658.1,1002.19,656.28z"/>
			<path class="st5" d="M1058.34,621.62c38.24,1.23,63.16,29.25,68.29,61.29l-6.47,6.79c-3.48-18.18-14.01-35.35-30.48-49.89
				C1078.77,630.23,1061.82,622.59,1058.34,621.62z"/>
			<path class="st5" d="M1074.76,616.86c35.51-2.03,63.58,26.2,71.45,55.46l-7.7,2.46c-4.92-16.58-16.36-31.55-33-43.64
				C1094.49,623.12,1078.08,617.45,1074.76,616.86z"/>
			<path class="st5" d="M1094.39,613.92c34.33-1.98,61.45,25.3,69.04,53.58l-7.43,2.35c-4.76-15.99-15.83-30.48-31.87-42.19
				C1113.48,619.97,1097.54,614.46,1094.39,613.92z"/>
			<path class="st5" d="M1083.91,630.82c-23.26-11.55-69.15,21.34-75.4,51.23c8.82-23.1,30.8-40.8,56.15-48.56
				C1072.89,630.98,1082.3,630.61,1083.91,630.82z"/>
			<path class="st5" d="M1091.07,637.94c-23.26-11.5-69.2,21.34-75.4,51.28c8.82-23.16,30.8-40.86,56.15-48.56
				C1080.05,638.15,1089.47,637.72,1091.07,637.94z"/>
			<path class="st5" d="M1098.67,646.38c-23.26-11.55-69.2,21.28-75.4,51.23c8.77-23.1,30.8-40.86,56.15-48.56
				C1087.65,646.54,1097.06,646.17,1098.67,646.38z"/>
			<path class="st4" d="M1364.98,830.02c-2.25-12.51-21.98-4.49-27.49-0.8c2.93,11.99-12.14,10.31-0.22-0.72
				c-2.99-10.52-18.77-28.98-42.51-20.62c-11.93,4.17-12.41,25.29-8.13,34.65c5.45,11.91,12.13,22.13,20.32,30.24
				C1326.02,870.07,1368.61,850.61,1364.98,830.02z"/>
			<path class="st5" d="M1167.49,875.8c38.61,7.7,90.75,9.63,130.11-0.16c1.98-0.48,6.9-1.93,8.88-2.09
				c13.26-1.12,35.24-9.36,45.62-15.72c6.84-4.17,16.26-10.16,20.27-19.2c3.32-7.65,2.83-18.56-6.95-20.91
				c-4.92-1.18-11.98,0.48-17.11,3.53c-30,17.7-7.27,23.05-10.8,8.61c-2.46-10.37-18.45-29.89-42.73-21.34
				c-11.93,4.17-12.41,25.29-8.13,34.65c13.42,29.31,34.07,48.61,67.27,50.59c37.92,2.3,55.88-22.51,42.14-38.24
				c6.31,15.78-18.13,32.35-41.18,32.89c-30.38,0.64-51.07-9.63-70.64-43.8c-7.7-13.53-8.82-35.94,6.84-42.19
				c16.1-6.47,31.77,1.66,40.8,15.19c2.41,3.58,5.62,7.43,5.62,12.25c5.51-3.69,25.24-11.71,27.49,0.8
				c3.64,20.64-39.2,40.16-58.18,42.78c-63.37,8.82-73.21,4.44-105.94,0.91C1186.58,872.81,1175.89,876.18,1167.49,875.8z"/>
			<path class="st6" d="M1309.9,867.41c-3.05-5.35-10.43-19.84-6.58-26.47c1.18-2.09,3.9-4.33,7.59-3.9
				c5.03,0.59,9.15,6.79,9.52,12.09c6.47-4.22,12.3-3.16,13.9-1.55C1341.29,854.63,1327.12,864.04,1309.9,867.41z"/>
		</g>
	</g>
</g>
</svg>
